<svg width="78" height="62" viewBox="0 0 78 62" fill="none" xmlns="http://www.w3.org/2000/svg">
<g filter="url(#filter0_d_1_5)">
<rect x="4.5" y="0.5" width="68.9608" height="52.1429" stroke="white" shape-rendering="crispEdges"/>
</g>
<g filter="url(#filter1_d_1_5)">
<path d="M29.2296 17.92C28.8296 17.4667 28.363 17.0667 27.8296 16.72C27.2963 16.3467 26.6963 16.0267 26.0296 15.76C25.363 15.4933 24.643 15.28 23.8696 15.12C23.123 14.96 22.323 14.88 21.4696 14.88C18.9896 14.88 17.163 15.36 15.9896 16.32C14.843 17.2533 14.2696 18.5333 14.2696 20.16C14.2696 21.28 14.5363 22.16 15.0696 22.8C15.6296 23.44 16.4963 23.96 17.6696 24.36C18.843 24.76 20.3363 25.1733 22.1496 25.6C24.1763 26.0267 25.923 26.5333 27.3896 27.12C28.8563 27.7067 29.9896 28.5067 30.7896 29.52C31.5896 30.5067 31.9896 31.8533 31.9896 33.56C31.9896 34.8667 31.7363 36 31.2296 36.96C30.723 37.92 30.0163 38.72 29.1096 39.36C28.203 40 27.123 40.48 25.8696 40.8C24.6163 41.0933 23.243 41.24 21.7496 41.24C20.283 41.24 18.8696 41.0933 17.5096 40.8C16.1763 40.48 14.9096 40.0267 13.7096 39.44C12.5096 38.8267 11.3896 38.0533 10.3496 37.12L11.7496 34.84C12.2563 35.3733 12.8563 35.88 13.5496 36.36C14.2696 36.8133 15.0563 37.2267 15.9096 37.6C16.7896 37.9733 17.723 38.2667 18.7096 38.48C19.723 38.6667 20.763 38.76 21.8296 38.76C24.0963 38.76 25.8563 38.3467 27.1096 37.52C28.3896 36.6933 29.0296 35.4667 29.0296 33.84C29.0296 32.6667 28.7096 31.7333 28.0696 31.04C27.4296 30.32 26.4696 29.7333 25.1896 29.28C23.9096 28.8267 22.3363 28.3867 20.4696 27.96C18.4963 27.5067 16.8296 27 15.4696 26.44C14.1096 25.88 13.083 25.1467 12.3896 24.24C11.723 23.3067 11.3896 22.08 11.3896 20.56C11.3896 18.8 11.8163 17.32 12.6696 16.12C13.5496 14.8933 14.7496 13.9733 16.2696 13.36C17.7896 12.72 19.5363 12.4 21.5096 12.4C22.763 12.4 23.923 12.5333 24.9896 12.8C26.083 13.04 27.083 13.4 27.9896 13.88C28.923 14.36 29.7896 14.96 30.5896 15.68L29.2296 17.92ZM67.3665 41H64.6465V29.36C64.6465 26.9333 64.2598 25.1467 63.4865 24C62.7132 22.8533 61.5665 22.28 60.0465 22.28C58.4732 22.28 57.0598 22.84 55.8065 23.96C54.5798 25.08 53.7132 26.52 53.2065 28.28V41H50.4865V29.36C50.4865 26.9067 50.1132 25.12 49.3665 24C48.6198 22.8533 47.4732 22.28 45.9265 22.28C44.3798 22.28 42.9798 22.8267 41.7265 23.92C40.4732 25.0133 39.5932 26.4533 39.0865 28.24V41H36.3665V20.16H38.8465V24.88C39.7265 23.2533 40.8465 22 42.2065 21.12C43.5932 20.24 45.1265 19.8 46.8065 19.8C48.5398 19.8 49.9398 20.2933 51.0065 21.28C52.0732 22.2667 52.7265 23.56 52.9665 25.16C53.9265 23.4 55.0732 22.0667 56.4065 21.16C57.7665 20.2533 59.2998 19.8 61.0065 19.8C62.1798 19.8 63.1665 20.0133 63.9665 20.44C64.7932 20.8667 65.4465 21.48 65.9265 22.28C66.4332 23.0533 66.7932 24 67.0065 25.12C67.2465 26.2133 67.3665 27.44 67.3665 28.8V41Z" fill="white"/>
</g>
<defs>
<filter id="filter0_d_1_5" x="0" y="0" width="77.9608" height="61.1429" filterUnits="userSpaceOnUse" color-interpolation-filters="sRGB">
<feFlood flood-opacity="0" result="BackgroundImageFix"/>
<feColorMatrix in="SourceAlpha" type="matrix" values="0 0 0 0 0 0 0 0 0 0 0 0 0 0 0 0 0 0 127 0" result="hardAlpha"/>
<feOffset dy="4"/>
<feGaussianBlur stdDeviation="2"/>
<feComposite in2="hardAlpha" operator="out"/>
<feColorMatrix type="matrix" values="0 0 0 0 0 0 0 0 0 0 0 0 0 0 0 0 0 0 0.25 0"/>
<feBlend mode="normal" in2="BackgroundImageFix" result="effect1_dropShadow_1_5"/>
<feBlend mode="normal" in="SourceGraphic" in2="effect1_dropShadow_1_5" result="shape"/>
</filter>
<filter id="filter1_d_1_5" x="6.34963" y="12.4" width="65.0169" height="36.84" filterUnits="userSpaceOnUse" color-interpolation-filters="sRGB">
<feFlood flood-opacity="0" result="BackgroundImageFix"/>
<feColorMatrix in="SourceAlpha" type="matrix" values="0 0 0 0 0 0 0 0 0 0 0 0 0 0 0 0 0 0 127 0" result="hardAlpha"/>
<feOffset dy="4"/>
<feGaussianBlur stdDeviation="2"/>
<feComposite in2="hardAlpha" operator="out"/>
<feColorMatrix type="matrix" values="0 0 0 0 0 0 0 0 0 0 0 0 0 0 0 0 0 0 0.25 0"/>
<feBlend mode="normal" in2="BackgroundImageFix" result="effect1_dropShadow_1_5"/>
<feBlend mode="normal" in="SourceGraphic" in2="effect1_dropShadow_1_5" result="shape"/>
</filter>
</defs>
</svg>
