<svg width="269" height="44" viewBox="0 0 269 44" fill="none" xmlns="http://www.w3.org/2000/svg">
<g filter="url(#filter0_d_1_3)">
<path d="M21.144 6.228C20.784 5.82 20.364 5.46 19.884 5.148C19.404 4.812 18.864 4.524 18.264 4.284C17.664 4.044 17.016 3.852 16.32 3.708C15.648 3.564 14.928 3.492 14.16 3.492C11.928 3.492 10.284 3.924 9.228 4.788C8.196 5.628 7.68 6.78 7.68 8.244C7.68 9.252 7.92 10.044 8.4 10.62C8.904 11.196 9.684 11.664 10.74 12.024C11.796 12.384 13.14 12.756 14.772 13.14C16.596 13.524 18.168 13.98 19.488 14.508C20.808 15.036 21.828 15.756 22.548 16.668C23.268 17.556 23.628 18.768 23.628 20.304C23.628 21.48 23.4 22.5 22.944 23.364C22.488 24.228 21.852 24.948 21.036 25.524C20.22 26.1 19.248 26.532 18.12 26.82C16.992 27.084 15.756 27.216 14.412 27.216C13.092 27.216 11.82 27.084 10.596 26.82C9.396 26.532 8.256 26.124 7.176 25.596C6.096 25.044 5.088 24.348 4.152 23.508L5.412 21.456C5.868 21.936 6.408 22.392 7.032 22.824C7.68 23.232 8.388 23.604 9.156 23.94C9.948 24.276 10.788 24.54 11.676 24.732C12.588 24.9 13.524 24.984 14.484 24.984C16.524 24.984 18.108 24.612 19.236 23.868C20.388 23.124 20.964 22.02 20.964 20.556C20.964 19.5 20.676 18.66 20.1 18.036C19.524 17.388 18.66 16.86 17.508 16.452C16.356 16.044 14.94 15.648 13.26 15.264C11.484 14.856 9.984 14.4 8.76 13.896C7.536 13.392 6.612 12.732 5.988 11.916C5.388 11.076 5.088 9.972 5.088 8.604C5.088 7.02 5.472 5.688 6.24 4.608C7.032 3.504 8.112 2.676 9.48 2.124C10.848 1.548 12.42 1.26 14.196 1.26C15.324 1.26 16.368 1.38 17.328 1.62C18.312 1.836 19.212 2.16 20.028 2.592C20.868 3.024 21.648 3.564 22.368 4.212L21.144 6.228ZM26.0552 21.6C26.0552 20.424 26.3912 19.416 27.0632 18.576C27.7352 17.712 28.6592 17.052 29.8352 16.596C31.0352 16.116 32.4152 15.876 33.9752 15.876C34.8872 15.876 35.8352 15.948 36.8192 16.092C37.8032 16.236 38.6792 16.452 39.4472 16.74V15.156C39.4472 13.572 38.9792 12.312 38.0432 11.376C37.1072 10.44 35.8112 9.972 34.1552 9.972C33.1472 9.972 32.1512 10.164 31.1672 10.548C30.2072 10.908 29.1992 11.448 28.1432 12.168L27.2072 10.44C28.4312 9.6 29.6312 8.976 30.8072 8.568C31.9832 8.136 33.1832 7.92 34.4072 7.92C36.7112 7.92 38.5352 8.58 39.8792 9.9C41.2232 11.22 41.8952 13.044 41.8952 15.372V24.048C41.8952 24.384 41.9672 24.636 42.1112 24.804C42.2552 24.948 42.4832 25.032 42.7952 25.056V27C42.5312 27.024 42.3032 27.048 42.1112 27.072C41.9192 27.096 41.7752 27.096 41.6792 27.072C41.0792 27.048 40.6232 26.856 40.3112 26.496C39.9992 26.136 39.8312 25.752 39.8072 25.344L39.7712 23.976C38.9312 25.056 37.8392 25.896 36.4952 26.496C35.1512 27.072 33.7832 27.36 32.3912 27.36C31.1912 27.36 30.0992 27.108 29.1152 26.604C28.1552 26.076 27.3992 25.38 26.8472 24.516C26.3192 23.628 26.0552 22.656 26.0552 21.6ZM38.6192 23.04C38.8832 22.704 39.0872 22.38 39.2312 22.068C39.3752 21.756 39.4472 21.48 39.4472 21.24V18.504C38.6312 18.192 37.7792 17.952 36.8912 17.784C36.0272 17.616 35.1512 17.532 34.2632 17.532C32.5112 17.532 31.0952 17.88 30.0152 18.576C28.9352 19.272 28.3952 20.22 28.3952 21.42C28.3952 22.116 28.5752 22.776 28.9352 23.4C29.2952 24 29.8232 24.504 30.5192 24.912C31.2152 25.296 32.0312 25.488 32.9672 25.488C34.1432 25.488 35.2352 25.26 36.2432 24.804C37.2752 24.348 38.0672 23.76 38.6192 23.04ZM62.9524 27H60.5044V16.524C60.5044 14.316 60.1804 12.708 59.5324 11.7C58.8844 10.668 57.8644 10.152 56.4724 10.152C55.5124 10.152 54.5644 10.392 53.6284 10.872C52.6924 11.328 51.8644 11.964 51.1444 12.78C50.4484 13.572 49.9444 14.484 49.6324 15.516V27H47.1844V8.244H49.4164V12.492C49.9204 11.58 50.5804 10.788 51.3964 10.116C52.2124 9.42 53.1364 8.88 54.1684 8.496C55.2004 8.112 56.2684 7.92 57.3724 7.92C58.4044 7.92 59.2804 8.112 60.0004 8.496C60.7204 8.88 61.2964 9.432 61.7284 10.152C62.1604 10.848 62.4724 11.7 62.6644 12.708C62.8564 13.692 62.9524 14.796 62.9524 16.02V27ZM65.3647 33.516C64.5727 33.516 63.8287 33.408 63.1327 33.192C62.4127 32.976 61.7887 32.616 61.2607 32.112L62.4487 30.456C62.8087 30.792 63.2287 31.02 63.7087 31.14C64.1647 31.26 64.6207 31.32 65.0767 31.32C65.6527 31.32 66.1927 31.176 66.6967 30.888C67.2007 30.6 67.6087 30.192 67.9207 29.664C68.2567 29.16 68.4247 28.596 68.4247 27.972V8.244H70.8727V27.828C70.8727 28.932 70.6087 29.916 70.0807 30.78C69.5527 31.644 68.8687 32.316 68.0287 32.796C67.1887 33.276 66.3007 33.516 65.3647 33.516ZM68.4247 4.32V0.719999H70.8727V4.32H68.4247ZM84.3586 27.36C83.0146 27.36 81.7666 27.108 80.6146 26.604C79.4626 26.076 78.4666 25.368 77.6266 24.48C76.7866 23.568 76.1266 22.524 75.6466 21.348C75.1906 20.172 74.9626 18.912 74.9626 17.568C74.9626 15.816 75.3586 14.208 76.1506 12.744C76.9666 11.28 78.0826 10.116 79.4986 9.252C80.9146 8.364 82.5226 7.92 84.3226 7.92C86.1706 7.92 87.7786 8.364 89.1466 9.252C90.5386 10.14 91.6306 11.316 92.4226 12.78C93.2146 14.22 93.6106 15.804 93.6106 17.532C93.6106 17.724 93.6106 17.916 93.6106 18.108C93.6106 18.276 93.5986 18.408 93.5746 18.504H77.5186C77.6386 19.848 78.0106 21.048 78.6346 22.104C79.2826 23.136 80.1106 23.964 81.1186 24.588C82.1506 25.188 83.2666 25.488 84.4666 25.488C85.6906 25.488 86.8426 25.176 87.9226 24.552C89.0266 23.928 89.7946 23.112 90.2266 22.104L92.3506 22.68C91.9666 23.568 91.3786 24.372 90.5866 25.092C89.7946 25.812 88.8586 26.376 87.7786 26.784C86.7226 27.168 85.5826 27.36 84.3586 27.36ZM77.4466 16.74H91.3066C91.2106 15.372 90.8386 14.172 90.1906 13.14C89.5666 12.108 88.7386 11.304 87.7066 10.728C86.6986 10.128 85.5826 9.828 84.3586 9.828C83.1346 9.828 82.0186 10.128 81.0106 10.728C80.0026 11.304 79.1746 12.12 78.5266 13.176C77.9026 14.208 77.5426 15.396 77.4466 16.74ZM105.488 27.36C104.144 27.36 102.896 27.108 101.744 26.604C100.592 26.076 99.5955 25.368 98.7555 24.48C97.9155 23.568 97.2555 22.524 96.7755 21.348C96.3195 20.172 96.0915 18.912 96.0915 17.568C96.0915 15.816 96.4875 14.208 97.2795 12.744C98.0955 11.28 99.2115 10.116 100.628 9.252C102.044 8.364 103.652 7.92 105.452 7.92C107.3 7.92 108.908 8.364 110.276 9.252C111.668 10.14 112.76 11.316 113.552 12.78C114.344 14.22 114.74 15.804 114.74 17.532C114.74 17.724 114.74 17.916 114.74 18.108C114.74 18.276 114.728 18.408 114.704 18.504H98.6475C98.7675 19.848 99.1395 21.048 99.7635 22.104C100.412 23.136 101.24 23.964 102.248 24.588C103.28 25.188 104.396 25.488 105.596 25.488C106.82 25.488 107.972 25.176 109.052 24.552C110.156 23.928 110.924 23.112 111.356 22.104L113.48 22.68C113.096 23.568 112.508 24.372 111.716 25.092C110.924 25.812 109.988 26.376 108.908 26.784C107.852 27.168 106.712 27.36 105.488 27.36ZM98.5755 16.74H112.436C112.34 15.372 111.968 14.172 111.32 13.14C110.696 12.108 109.868 11.304 108.836 10.728C107.828 10.128 106.712 9.828 105.488 9.828C104.264 9.828 103.148 10.128 102.14 10.728C101.132 11.304 100.304 12.12 99.6555 13.176C99.0315 14.208 98.6715 15.396 98.5755 16.74ZM123.604 27L116.008 8.244H118.564L124.972 24.552L131.416 8.244H133.828L126.232 27H123.604ZM168.559 27V6.192L159.307 22.356H157.723L148.435 6.192V27H145.915V1.44H148.507L158.479 18.936L168.523 1.44H171.079V27H168.559ZM178.061 32.76C178.397 32.784 178.721 32.796 179.033 32.796C179.345 32.82 179.573 32.808 179.717 32.76C180.005 32.712 180.281 32.544 180.545 32.256C180.809 31.968 181.121 31.416 181.481 30.6C181.841 29.784 182.345 28.584 182.993 27L174.821 8.244H177.413L184.289 24.48L190.625 8.244H193.073L183.353 32.436C183.185 32.892 182.933 33.312 182.597 33.696C182.261 34.104 181.841 34.416 181.337 34.632C180.857 34.872 180.257 35.004 179.537 35.028C179.321 35.052 179.093 35.052 178.853 35.028C178.637 35.028 178.373 35.004 178.061 34.956V32.76ZM202.192 27.36C200.656 27.36 199.228 27.108 197.908 26.604C196.588 26.1 195.448 25.332 194.488 24.3L195.496 22.572C196.552 23.556 197.608 24.276 198.664 24.732C199.744 25.164 200.884 25.38 202.084 25.38C203.548 25.38 204.736 25.092 205.648 24.516C206.56 23.916 207.016 23.064 207.016 21.96C207.016 21.216 206.788 20.652 206.332 20.268C205.9 19.86 205.264 19.536 204.424 19.296C203.608 19.032 202.624 18.756 201.472 18.468C200.176 18.108 199.084 17.736 198.196 17.352C197.332 16.944 196.672 16.44 196.216 15.84C195.784 15.216 195.568 14.412 195.568 13.428C195.568 12.204 195.868 11.196 196.468 10.404C197.092 9.588 197.932 8.976 198.988 8.568C200.068 8.136 201.268 7.92 202.588 7.92C204.028 7.92 205.3 8.148 206.404 8.604C207.508 9.06 208.408 9.696 209.104 10.512L207.916 12.168C207.244 11.4 206.44 10.836 205.504 10.476C204.592 10.092 203.572 9.9 202.444 9.9C201.676 9.9 200.944 10.008 200.248 10.224C199.552 10.416 198.976 10.752 198.52 11.232C198.088 11.688 197.872 12.324 197.872 13.14C197.872 13.812 198.04 14.34 198.376 14.724C198.712 15.084 199.216 15.396 199.888 15.66C200.56 15.9 201.388 16.164 202.372 16.452C203.788 16.836 205.024 17.232 206.08 17.64C207.136 18.024 207.952 18.528 208.528 19.152C209.104 19.776 209.392 20.652 209.392 21.78C209.392 23.532 208.732 24.9 207.412 25.884C206.092 26.868 204.352 27.36 202.192 27.36ZM221.43 27.36C220.086 27.36 218.838 27.108 217.686 26.604C216.558 26.076 215.574 25.368 214.734 24.48C213.918 23.568 213.282 22.536 212.826 21.384C212.37 20.208 212.142 18.972 212.142 17.676C212.142 16.332 212.37 15.084 212.826 13.932C213.282 12.756 213.93 11.724 214.77 10.836C215.61 9.924 216.594 9.216 217.722 8.712C218.874 8.184 220.122 7.92 221.466 7.92C222.81 7.92 224.046 8.184 225.174 8.712C226.302 9.216 227.286 9.924 228.126 10.836C228.966 11.724 229.614 12.756 230.07 13.932C230.526 15.084 230.754 16.332 230.754 17.676C230.754 18.972 230.526 20.208 230.07 21.384C229.614 22.536 228.966 23.568 228.126 24.48C227.31 25.368 226.326 26.076 225.174 26.604C224.046 27.108 222.798 27.36 221.43 27.36ZM214.626 17.712C214.626 19.104 214.926 20.376 215.526 21.528C216.15 22.656 216.978 23.556 218.01 24.228C219.042 24.876 220.182 25.2 221.43 25.2C222.678 25.2 223.818 24.864 224.85 24.192C225.882 23.52 226.71 22.608 227.334 21.456C227.958 20.28 228.27 19.008 228.27 17.64C228.27 16.248 227.958 14.976 227.334 13.824C226.71 12.672 225.882 11.76 224.85 11.088C223.818 10.416 222.678 10.08 221.43 10.08C220.182 10.08 219.042 10.428 218.01 11.124C217.002 11.82 216.186 12.744 215.562 13.896C214.938 15.024 214.626 16.296 214.626 17.712ZM244.208 10.404C242.576 10.452 241.136 10.908 239.888 11.772C238.664 12.636 237.8 13.824 237.296 15.336V27H234.848V8.244H237.152V12.744C237.8 11.424 238.652 10.356 239.708 9.54C240.788 8.724 241.928 8.268 243.128 8.172C243.368 8.148 243.572 8.136 243.74 8.136C243.932 8.136 244.088 8.148 244.208 8.172V10.404ZM254.972 27.36C253.628 27.36 252.38 27.108 251.228 26.604C250.076 26.076 249.08 25.368 248.24 24.48C247.4 23.568 246.74 22.524 246.26 21.348C245.804 20.172 245.576 18.912 245.576 17.568C245.576 15.816 245.972 14.208 246.764 12.744C247.58 11.28 248.696 10.116 250.112 9.252C251.528 8.364 253.136 7.92 254.936 7.92C256.784 7.92 258.392 8.364 259.76 9.252C261.152 10.14 262.244 11.316 263.036 12.78C263.828 14.22 264.224 15.804 264.224 17.532C264.224 17.724 264.224 17.916 264.224 18.108C264.224 18.276 264.212 18.408 264.188 18.504H248.132C248.252 19.848 248.624 21.048 249.248 22.104C249.896 23.136 250.724 23.964 251.732 24.588C252.764 25.188 253.88 25.488 255.08 25.488C256.304 25.488 257.456 25.176 258.536 24.552C259.64 23.928 260.408 23.112 260.84 22.104L262.964 22.68C262.58 23.568 261.992 24.372 261.2 25.092C260.408 25.812 259.472 26.376 258.392 26.784C257.336 27.168 256.196 27.36 254.972 27.36ZM248.06 16.74H261.92C261.824 15.372 261.452 14.172 260.804 13.14C260.18 12.108 259.352 11.304 258.32 10.728C257.312 10.128 256.196 9.828 254.972 9.828C253.748 9.828 252.632 10.128 251.624 10.728C250.616 11.304 249.788 12.12 249.14 13.176C248.516 14.208 248.156 15.396 248.06 16.74Z" fill="white"/>
</g>
<defs>
<filter id="filter0_d_1_3" x="0.152" y="0.720001" width="268.072" height="42.344" filterUnits="userSpaceOnUse" color-interpolation-filters="sRGB">
<feFlood flood-opacity="0" result="BackgroundImageFix"/>
<feColorMatrix in="SourceAlpha" type="matrix" values="0 0 0 0 0 0 0 0 0 0 0 0 0 0 0 0 0 0 127 0" result="hardAlpha"/>
<feOffset dy="4"/>
<feGaussianBlur stdDeviation="2"/>
<feComposite in2="hardAlpha" operator="out"/>
<feColorMatrix type="matrix" values="0 0 0 0 0 0 0 0 0 0 0 0 0 0 0 0 0 0 0.25 0"/>
<feBlend mode="normal" in2="BackgroundImageFix" result="effect1_dropShadow_1_3"/>
<feBlend mode="normal" in="SourceGraphic" in2="effect1_dropShadow_1_3" result="shape"/>
</filter>
</defs>
</svg>
